<svg xmlns="http://www.w3.org/2000/svg" width="26.252" height="24.489" viewBox="0 0 26.252 24.489">
  <path id="Path_2145" data-name="Path 2145" d="M1064.421,94.471h-.166V91.16a2.341,2.341,0,0,0-2.338-2.338h-2.28l-1.8-3.866a2.341,2.341,0,0,0-3.107-1.132l-10.726,5h-2.664A2.341,2.341,0,0,0,1039,91.16v14.6a2.341,2.341,0,0,0,2.338,2.338h20.578a2.341,2.341,0,0,0,2.338-2.338v-3.311h.166a.831.831,0,0,0,.831-.831V95.3A.831.831,0,0,0,1064.421,94.471Zm-8.991-9.141a.678.678,0,0,1,.9.328l1.474,3.164h-9.867Zm7.164,20.426a.677.677,0,0,1-.677.677h-20.578a.677.677,0,0,1-.677-.677V91.16a.677.677,0,0,1,.677-.677h20.578a.677.677,0,0,1,.677.677v3.311h-5.649a.831.831,0,0,0-.831.831v6.314a.831.831,0,0,0,.831.831h5.649Zm1-4.972h-5.815V96.132h5.815Z" transform="translate(-1039 -83.605)" fill="#ce9246"/>
</svg>
