<svg id="Icone_Receber" data-name="Icone Receber" xmlns="http://www.w3.org/2000/svg" width="26.848" height="24.469" viewBox="0 0 26.848 24.469">
  <path id="Path_2122" data-name="Path 2122" d="M833.881,805.528l-1.2-1.2-4.157,4.157V800h-1.7v8.484l-4.157-4.157-1.2,1.2,6.208,6.208Z" transform="translate(-819.687 -800)" fill="#ce9246"/>
  <path id="Path_2123" data-name="Path 2123" d="M837,833.777h-.17v-3.386A2.394,2.394,0,0,0,834.437,828h-6.7v1.7h6.7a.693.693,0,0,1,.692.692v3.386h-5.777a.849.849,0,0,0-.85.85v6.457a.849.849,0,0,0,.85.85h5.777v3.386a.693.693,0,0,1-.692.692H813.391a.693.693,0,0,1-.692-.692V832.588H811V845.32a2.394,2.394,0,0,0,2.391,2.391h21.045a2.394,2.394,0,0,0,2.391-2.391v-3.386H837a.85.85,0,0,0,.85-.85v-6.457A.849.849,0,0,0,837,833.777Zm-.85,6.457H830.2v-4.758h5.947Z" transform="translate(-811 -823.242)" fill="#ce9246"/>
</svg>
