<svg id="Icone_Pagar" data-name="Icone Pagar" xmlns="http://www.w3.org/2000/svg" width="26.134" height="26.134" viewBox="0 0 26.134 26.134">
  <path id="Path_2118" data-name="Path 2118" d="M590.167,807.6a13.067,13.067,0,1,0,13.067,13.067A13.082,13.082,0,0,0,590.167,807.6Zm0,24.469a11.4,11.4,0,1,1,11.4-11.4A11.415,11.415,0,0,1,590.167,832.069Z" transform="translate(-577.1 -807.6)" fill="#ce9246"/>
  <path id="Path_2119" data-name="Path 2119" d="M635.18,853.012v-2.884a5.9,5.9,0,0,1,2.313.771l.586-1.443a6.123,6.123,0,0,0-2.9-.871V847h-1.171v1.614c-2.228.214-3.284,1.486-3.284,2.942,0,1.985,1.7,2.5,3.284,2.885V857.3a5.493,5.493,0,0,1-2.856-1.085l-.642,1.443a6.253,6.253,0,0,0,3.5,1.185v1.585h1.171v-1.6c2.242-.228,3.313-1.485,3.313-2.941C638.494,853.9,636.765,853.4,635.18,853.012Zm-1.171-.3c-.828-.243-1.442-.558-1.442-1.242,0-.629.429-1.143,1.442-1.3Zm1.171,4.555V854.74c.857.243,1.485.572,1.485,1.271C636.666,856.625,636.223,857.11,635.18,857.268Z" transform="translate(-621.435 -840.305)" fill="#ce9246"/>
</svg>
