<svg xmlns="http://www.w3.org/2000/svg" width="24.973" height="26.416" viewBox="0 0 24.973 26.416">
  <g id="Icone_Varejo" data-name="Icone Varejo" transform="translate(-355 -816)">
    <rect id="Rectangle_617" data-name="Rectangle 617" width="3.986" height="13.551" transform="translate(355 827.999)" fill="#ce9246"/>
    <rect id="Rectangle_618" data-name="Rectangle 618" width="3.986" height="10.363" transform="translate(363.768 831.187)" fill="#ce9246"/>
    <path id="Path_2124" data-name="Path 2124" d="M386.7,818.933v2.593h1.686V816h-5.525v1.686h2.7l-7.908,8.209-6.982-5.948-1.093,1.283,8.189,6.976Z" transform="translate(-11.851)" fill="#ce9246"/>
    <path id="Path_2125" data-name="Path 2125" d="M447,868.748a5.839,5.839,0,0,1,4.308.074V862H447Z" transform="translate(-74.768 -37.384)" fill="#ce9246"/>
    <path id="Path_2126" data-name="Path 2126" d="M445,912.742l-2.076-2.076a4.313,4.313,0,1,0-1.181,1.2l2.065,2.065Zm-7.535-2.58a2.622,2.622,0,1,1,1.854.768A2.625,2.625,0,0,1,437.463,910.162Z" transform="translate(-65.024 -71.517)" fill="#ce9246"/>
  </g>
</svg>
