<svg xmlns="http://www.w3.org/2000/svg" width="9.991" height="9.938" viewBox="0 0 9.991 9.938">
  <g id="Group_673" data-name="Group 673" transform="translate(-589.283 -820.503)">
    <path id="Path_2137" data-name="Path 2137" d="M594.5,823.552l-1.989-1.989a.142.142,0,0,0-.2,0l-1.989,1.989a.142.142,0,0,0,0,.2l.385.385a.142.142,0,0,0,.2,0l1.089-1.09v2.375a.142.142,0,0,0,.142.142h.544a.142.142,0,0,0,.142-.142v-2.375l1.09,1.09a.142.142,0,0,0,.2,0l.385-.385A.142.142,0,0,0,594.5,823.552Z" transform="translate(1183.828 1646.068) rotate(180)" fill="#fff"/>
    <path id="Path_2138" data-name="Path 2138" d="M595.482,821.5a.284.284,0,0,0-.284.284v.534a.284.284,0,0,0,.284.284A3.369,3.369,0,1,1,592.114,826a.284.284,0,0,0-.284-.282H591.3a.284.284,0,0,0-.284.286,4.47,4.47,0,1,0,4.469-4.5Z" transform="translate(-0.678)" fill="#fff"/>
  </g>
</svg>
