<svg id="Icone_Visibilidade" data-name="Icone Visibilidade" xmlns="http://www.w3.org/2000/svg" width="24" height="24" viewBox="0 0 24 24">
  <rect id="Box" width="24" height="24" fill="none"/>
  <path id="Path_2087" data-name="Path 2087" d="M107,17.3a9.624,9.624,0,0,1-8.8-5.5A9.732,9.732,0,0,1,107,6.3a9.624,9.624,0,0,1,8.8,5.5A9.624,9.624,0,0,1,107,17.3Zm0-13a11.782,11.782,0,0,0-11,7.5,11.817,11.817,0,0,0,22,0A11.782,11.782,0,0,0,107,4.3Zm0,10a2.5,2.5,0,1,1,2.5-2.5A2.476,2.476,0,0,1,107,14.3Zm0-7a4.5,4.5,0,1,0,4.5,4.5A4.481,4.481,0,0,0,107,7.3Z" transform="translate(-95 1)" fill="#ce9246"/>
</svg>
