<svg xmlns="http://www.w3.org/2000/svg" width="29.429" height="21.539" viewBox="0 0 29.429 21.539">
  <g id="Group_702" data-name="Group 702" transform="translate(-821.465 -343.7)">
    <path id="Path_2146" data-name="Path 2146" d="M829.19,364.532V353.7a4.637,4.637,0,0,1,4.632-4.632V347.2a6.5,6.5,0,0,0-6.492,6.492v10.836l-4.55-4.55-1.315,1.315,6.795,6.795,6.795-6.795-1.315-1.315Z" transform="translate(0 -2.852)" fill="#ce9246"/>
    <path id="Path_2147" data-name="Path 2147" d="M913.429,343.7l-6.795,6.795,1.315,1.315,4.55-4.55v5.62h0V358.1a4.637,4.637,0,0,1-4.632,4.632v1.86a6.5,6.5,0,0,0,6.492-6.492v-1.55h0V347.26l4.55,4.55,1.315-1.315Z" transform="translate(-69.329)" fill="#ce9246"/>
  </g>
</svg>
