<svg id="Icone_Visibilidade" data-name="Icone Visibilidade" xmlns="http://www.w3.org/2000/svg" width="32" height="32" viewBox="0 0 32 32">
  <rect id="Box" width="32" height="32" fill="none"/>
  <path id="Path_2087" data-name="Path 2087" d="M110.667,21.633A12.832,12.832,0,0,1,98.933,14.3a12.976,12.976,0,0,1,11.733-7.333A12.832,12.832,0,0,1,122.4,14.3,12.832,12.832,0,0,1,110.667,21.633Zm0-17.333A15.709,15.709,0,0,0,96,14.3a15.756,15.756,0,0,0,29.333,0A15.709,15.709,0,0,0,110.667,4.3Zm0,13.333A3.333,3.333,0,1,1,114,14.3,3.3,3.3,0,0,1,110.667,17.633Zm0-9.333a6,6,0,1,0,6,6A5.975,5.975,0,0,0,110.667,8.3Z" transform="translate(-94.667 2.767)" fill="#fff"/>
</svg>
