<svg id="Icone_Extrato" data-name="Icone Extrato" xmlns="http://www.w3.org/2000/svg" width="23.004" height="25.697" viewBox="0 0 23.004 25.697">
  <path id="Path_2111" data-name="Path 2111" d="M1082.977,809.842l-14.274.019a.555.555,0,0,0-.39.161l-6.78,6.78a.547.547,0,0,0-.161.39v16.949a1.4,1.4,0,0,0,1.4,1.4l20.206-.019a1.4,1.4,0,0,0,1.4-1.4V811.241A1.4,1.4,0,0,0,1082.977,809.842Zm-.121,1.853v21.974a.28.28,0,0,1-.28.279l-19.405.018a.28.28,0,0,1-.28-.28V817.944h5.163a1.35,1.35,0,0,0,1.348-1.348v-5.163l13.174-.018A.28.28,0,0,1,1082.856,811.695Zm-19.329,4.946,4.624-4.625v4.35a.275.275,0,0,1-.275.275Z" transform="translate(-1061.372 -809.842)" fill="#ce9246"/>
  <path id="Path_2112" data-name="Path 2112" d="M1086.388,870.324h-1.107a.76.76,0,0,0,0,1.52h1.107a.76.76,0,1,0,0-1.52Z" transform="translate(-1080.588 -860.047)" fill="#ce9246"/>
  <path id="Path_2113" data-name="Path 2113" d="M1117.732,870.324h-10.119a.76.76,0,0,0,0,1.52h10.119a.76.76,0,0,0,0-1.52Z" transform="translate(-1099.125 -860.047)" fill="#ce9246"/>
  <path id="Path_2114" data-name="Path 2114" d="M1086.388,892.656h-1.107a.76.76,0,0,0,0,1.52h1.107a.76.76,0,1,0,0-1.52Z" transform="translate(-1080.588 -878.584)" fill="#ce9246"/>
  <path id="Path_2115" data-name="Path 2115" d="M1117.732,892.656h-10.119a.76.76,0,0,0,0,1.52h10.119a.76.76,0,0,0,0-1.52Z" transform="translate(-1099.125 -878.584)" fill="#ce9246"/>
  <path id="Path_2116" data-name="Path 2116" d="M1086.388,914.988h-1.107a.76.76,0,0,0,0,1.52h1.107a.76.76,0,1,0,0-1.52Z" transform="translate(-1080.588 -897.121)" fill="#ce9246"/>
  <path id="Path_2117" data-name="Path 2117" d="M1117.732,914.988h-10.119a.76.76,0,0,0,0,1.52h10.119a.76.76,0,0,0,0-1.52Z" transform="translate(-1099.125 -897.121)" fill="#ce9246"/>
</svg>
