<svg xmlns="http://www.w3.org/2000/svg" width="31" height="26.697" viewBox="0 0 31 26.697">
  <g id="Icone_Transferencia_2" data-name="Icone Transferencia 2" transform="translate(0 1)">
    <path id="Path_2111" data-name="Path 2111" d="M1082.977,809.842l-14.274.019a.555.555,0,0,0-.39.161l-6.78,6.78a.547.547,0,0,0-.161.39v16.949a1.4,1.4,0,0,0,1.4,1.4l20.206-.019a1.4,1.4,0,0,0,1.4-1.4V811.241A1.4,1.4,0,0,0,1082.977,809.842Zm-.121,1.853v21.974a.28.28,0,0,1-.28.279l-19.405.018a.28.28,0,0,1-.28-.28V817.944h5.163a1.35,1.35,0,0,0,1.348-1.348v-5.163l13.174-.018A.28.28,0,0,1,1082.856,811.695Zm-19.329,4.946,4.624-4.625v4.35a.275.275,0,0,1-.275.275Z" transform="translate(-1061.372 -809.842)" fill="#ce9246"/>
    <path id="Path_2141" data-name="Path 2141" d="M24.381,4.356,18.957,9.78v9.861L25.4,13.2Z"/>
    <g id="Icon_Done_Outlined" data-name="Icon / Done / Outlined" transform="translate(7 -1)">
      <rect id="Box" width="24" height="24" fill="none"/>
      <path id="Icon_Done_Black" data-name="Icon / Done / Black" d="M7.587-4.412,3.415-8.583,2-7.168,7.587-1.581l12-12L18.175-15Z" transform="translate(1 22)" fill="#ce9246"/>
    </g>
  </g>
</svg>
