<svg id="Icone_Depositar" data-name="Icone Depositar" xmlns="http://www.w3.org/2000/svg" width="26.848" height="24.481" viewBox="0 0 26.848 24.481">
  <path id="Path_2120" data-name="Path 2120" d="M351.465,806.137l1.2,1.2,4.157-4.157v8.484h1.7v-8.484l4.157,4.157,1.2-1.2-6.208-6.208Z" transform="translate(-349.347 -799.929)" fill="#ce9246"/>
  <path id="Path_2121" data-name="Path 2121" d="M365,833.777h-.17v-3.386A2.394,2.394,0,0,0,362.437,828h-6.7v1.7h6.7a.693.693,0,0,1,.692.692v3.386h-5.777a.849.849,0,0,0-.85.85v6.457a.849.849,0,0,0,.85.85h5.777v3.386a.693.693,0,0,1-.692.692H341.391a.693.693,0,0,1-.692-.692V832.588H339V845.32a2.394,2.394,0,0,0,2.391,2.391h21.045a2.394,2.394,0,0,0,2.391-2.391v-3.386H365a.849.849,0,0,0,.85-.85v-6.457A.849.849,0,0,0,365,833.777Zm-.85,6.457H358.2v-4.758h5.947Z" transform="translate(-339 -823.23)" fill="#ce9246"/>
</svg>
