<svg xmlns="http://www.w3.org/2000/svg" width="28" height="28" viewBox="0 0 28 28">
  <g id="Icon_Circle_Outlined" data-name="Icon / Circle / Outlined" transform="translate(-0.251 -0.251)">
    <g id="Box" transform="translate(0.251 0.251)" fill="none" stroke="#272727" stroke-width="0.8">
      <rect width="28" height="28" stroke="none"/>
      <rect x="0.4" y="0.4" width="27.2" height="27.2" fill="none"/>
    </g>
    <path id="Path_2104" data-name="Path 2104" d="M12.251,11.026a1.838,1.838,0,0,1,0-3.675,1.884,1.884,0,0,1,1.838,1.838A1.884,1.884,0,0,1,12.251,11.026Zm0-6.126A4.341,4.341,0,0,0,7.963,9.189a4.288,4.288,0,1,0,8.576,0A4.341,4.341,0,0,0,12.251,4.9Zm7.841,13.232c-1.715-2.083-6-2.818-7.841-2.818s-6,.735-7.841,2.818a9.7,9.7,0,0,1-1.96-5.881,9.8,9.8,0,0,1,19.6,0A9.7,9.7,0,0,1,20.092,18.132ZM6.248,19.97c.49-1.1,3.675-2.205,6-2.205s5.513,1.1,6,2.205a9.165,9.165,0,0,1-6,2.083A9.165,9.165,0,0,1,6.248,19.97Zm6-19.97A12.251,12.251,0,1,0,24.5,12.251,12.287,12.287,0,0,0,12.251,0Z" transform="translate(2 2)" fill="#ce9246" stroke="#272727" stroke-width="0.8"/>
  </g>
</svg>
